<?xml version="1.0" encoding="UTF-8" standalone="no"?>
<!-- Created with Inkscape (http://www.inkscape.org/) -->

<svg
   xmlns:dc="http://purl.org/dc/elements/1.1/"
   xmlns:cc="http://creativecommons.org/ns#"
   xmlns:rdf="http://www.w3.org/1999/02/22-rdf-syntax-ns#"
   xmlns:svg="http://www.w3.org/2000/svg"
   xmlns="http://www.w3.org/2000/svg"
   xmlns:sodipodi="http://sodipodi.sourceforge.net/DTD/sodipodi-0.dtd"
   xmlns:inkscape="http://www.inkscape.org/namespaces/inkscape"
   width="744.09448819"
   height="1052.3622047"
   id="svg2"
   version="1.1"
   inkscape:version="0.48.4 r9939"
   sodipodi:docname="New document 1">
  <defs
     id="defs4" />
  <sodipodi:namedview
     id="base"
     pagecolor="#ffffff"
     bordercolor="#666666"
     borderopacity="1.0"
     inkscape:pageopacity="0.0"
     inkscape:pageshadow="2"
     inkscape:zoom="0.35"
     inkscape:cx="375"
     inkscape:cy="520"
     inkscape:document-units="px"
     inkscape:current-layer="layer1"
     showgrid="false"
     inkscape:window-width="1301"
     inkscape:window-height="744"
     inkscape:window-x="65"
     inkscape:window-y="24"
     inkscape:window-maximized="1" />
  <metadata
     id="metadata7">
    <rdf:RDF>
      <cc:Work
         rdf:about="">
        <dc:format>image/svg+xml</dc:format>
        <dc:type
           rdf:resource="http://purl.org/dc/dcmitype/StillImage" />
        <dc:title></dc:title>
      </cc:Work>
    </rdf:RDF>
  </metadata>
  <g
     inkscape:label="Layer 1"
     inkscape:groupmode="layer"
     id="layer1">
    <path
       sodipodi:type="arc"
       id="path2985"
       sodipodi:cx="251.42857"
       sodipodi:cy="273.79074"
       sodipodi:rx="20"
       sodipodi:ry="18.571428"
       d="m 271.42857,273.79074 a 20,18.571428 0 1 1 -40,0 20,18.571428 0 1 1 40,0 z" />
    <path
       sodipodi:type="arc"
       id="path2987"
       sodipodi:cx="88.571426"
       sodipodi:cy="273.79074"
       sodipodi:rx="31.428572"
       sodipodi:ry="21.428572"
       d="m 120,273.79074 a 31.428572,21.428572 0 1 1 -62.857145,0 31.428572,21.428572 0 1 1 62.857145,0 z"
       transform="translate(111.42857,-0.8571429)" />
    <path
       style="fill:none;stroke:#000000;stroke-width:1px;stroke-linecap:butt;stroke-linejoin:miter;stroke-opacity:1"
       d="m 200,252.36218 c 0,-19.66534 0,-25.75033 0,-40 0,-3.80952 0,-7.61905 0,-11.42857 0,-0.95238 -0.95238,-2.85714 0,-2.85714 0.95238,0 0,1.90476 0,2.85714 0,2.85714 0,5.71429 0,8.57143"
       id="path2992"
       inkscape:connector-curvature="0" />
    <path
       style="fill:none;stroke:#000000;stroke-width:1px;stroke-linecap:butt;stroke-linejoin:miter;stroke-opacity:1"
       d="m 205.71429,295.21933 c 0,9.5238 0,19.04761 0,28.57142"
       id="path2994"
       inkscape:connector-curvature="0" />
    <path
       style="fill:none;stroke:#000000;stroke-width:1px;stroke-linecap:butt;stroke-linejoin:miter;stroke-opacity:1"
       d="m 217.14286,255.21933 c 0,-4.76191 0,-9.52381 0,-14.28572 0,-4.52646 -0.85184,-7.71959 2.85714,-11.42857 1.34687,-1.34687 4.36742,1.34687 5.71429,0 0.67343,-0.67344 -0.67344,-2.18371 0,-2.85714 1.94093,-1.94093 5.68217,2.92137 8.57142,-2.85715 0.42592,-0.85183 0,-1.90476 0,-2.85714"
       id="path2996"
       inkscape:connector-curvature="0" />
    <path
       style="fill:none;stroke:#000000;stroke-width:1px;stroke-linecap:butt;stroke-linejoin:miter;stroke-opacity:1"
       d="m 180,252.36218 c -3.80952,-2.85714 -14.28571,-4.7619 -11.42857,-8.57143 2.85714,-3.80952 16.19047,8.57143 11.42857,8.57143 -5.55329,0 -9.3187,-6.08792 -14.28571,-8.57143 -0.85184,-0.42591 -2.18371,0.67344 -2.85715,0 -0.67343,-0.67343 0.42592,-2.0053 0,-2.85714 C 159.32656,233.87246 160,241.91983 160,235.21933"
       id="path2998"
       inkscape:connector-curvature="0" />
    <path
       style="fill:none;stroke:#000000;stroke-width:1px;stroke-linecap:butt;stroke-linejoin:miter;stroke-opacity:1"
       d="m 177.14286,283.79075 c 0,9.52381 0,19.04762 0,28.57143 0,1.90476 0.85183,4.01062 0,5.71429 -0.42592,0.85183 -1.90476,0 -2.85715,0 -0.95238,0 -1.90476,0 -2.85714,0 -9.52381,0 6.66667,0 -2.85714,0"
       id="path3000"
       inkscape:connector-curvature="0" />
    <path
       style="fill:none;stroke:#000000;stroke-width:1px;stroke-linecap:butt;stroke-linejoin:miter;stroke-opacity:1"
       d="m 214.28571,289.50504 c 0.95239,3.80952 6.66667,10.47619 2.85715,11.42857 -3.80953,0.95238 -5.63379,-14.20521 -2.85715,-11.42857 3.62656,3.62656 3.07558,9.88787 5.71429,14.28571 0.49,0.81666 2.18371,-0.67343 2.85714,0 0.67344,0.67344 -0.67343,2.18371 0,2.85715 1.34687,1.34687 4.36742,-1.34687 5.71429,0 0.67343,0.67343 0,1.90476 0,2.85714 0,0.95238 0,1.90476 0,2.85714 0,0.95238 -0.67344,2.18371 0,2.85715 0.67343,0.67343 1.90476,0 2.85714,0 0.95238,0 1.90476,0 2.85714,0"
       id="path3002"
       inkscape:connector-curvature="0" />
  </g>
</svg>
